Coordinates
version=1
nRows=30
nColumns=23
inDegrees=yes

Units are S.I. units (second, meters, Newtons, ...)
If the header above contains a line with 'inDegrees', this indicates whether rotational values are in degrees (yes) or radians (no).

endheader
time	pelvis_tilt	pelvis_list	pelvis_rotation	pelvis_tx	pelvis_ty	pelvis_tz	hip_flexion_r	hip_adduction_r	hip_rotation_r	knee_angle_r	knee_angle_r_beta	ankle_angle_r	subtalar_angle_r	mtp_angle_r	hip_flexion_l	hip_adduction_l	hip_rotation_l	knee_angle_l	knee_angle_l_beta	ankle_angle_l	subtalar_angle_l	mtp_angle_l
     15.00000000	      2.45763317	      0.09666671	      0.59438399	      2.32618152	      0.95466062	      1.01209821	     -6.27067124	     -1.30205563	    -12.37597119	     29.84982200	      0.52097767	     16.87493509	      1.36145411	      0.00000000	     24.90675085	     -5.23870673	     -4.05295548	     89.81645250	      1.56759282	      0.11068146	    -12.16832295	      0.00000000
     15.00666667	      1.84623098	      0.96258627	      0.51251372	      2.32786261	      0.95852466	      1.01255610	     -7.95803884	     -2.08235381	    -12.47286173	     27.92958738	      0.48746326	     14.34031823	      1.81492894	      0.00000000	     26.31057037	     -4.64783885	     -5.09683134	     87.20620740	      1.52203545	      0.66052983	    -12.25430812	      0.00000000
     15.01333333	      1.69086440	      1.64473036	      0.47656451	      2.32996656	      0.96328057	      1.01298081	    -10.30534626	     -2.45388550	    -12.07743398	     25.50040299	      0.44506599	     11.34708533	      1.50373507	      0.00000000	     26.98075129	     -4.19413704	     -6.06621558	     84.25211869	      1.47047687	      1.15502063	    -12.43344987	      0.00000000
     15.02000000	      1.08719195	      2.48875952	      0.51779994	      2.33216823	      0.96747864	      1.01310468	    -11.95470118	     -3.21022698	    -12.36239650	     23.52655724	      0.41061589	      8.34482578	      1.96230295	      0.00000000	     28.00082227	     -3.46203897	     -7.08123797	     81.08120753	      1.41513403	      1.60568969	    -12.68758266	      0.00000000
     15.02666667	      0.47673777	      3.23892594	      0.59847903	      2.33447888	      0.97175336	      1.01316162	    -13.53359335	     -3.83600517	    -12.59876215	     21.56376769	      0.37635875	      5.05427199	      2.22616905	      0.00000000	     28.86059837	     -2.77806536	     -8.06723392	     77.67177802	      1.35562826	      2.03354897	    -12.79977389	      0.00000000
     15.03333333	     -0.66714125	      3.83440507	      0.64553168	      2.33656236	      0.97530841	      1.01316573	    -14.19553696	     -4.44329328	    -13.00447856	     20.18901971	      0.35236487	      1.93274997	      2.88445595	      0.00000000	     30.20443872	     -2.26640326	     -9.11607708	     74.14616065	      1.29409463	      2.48296882	    -12.57871561	      0.00000000
     15.04000000	     -1.00221903	      4.44594883	      1.00451813	      2.33899367	      0.97973441	      1.01283147	    -15.95370155	     -4.82455796	    -13.41319146	     18.35034810	      0.32027399	     -1.52446147	      2.63086289	      0.00000000	     30.46690118	     -1.50595096	     -9.86224544	     70.31459446	      1.22722119	      2.79002235	    -12.37618325	      0.00000000
     15.04666667	     -1.83742539	      4.91859076	      1.39692092	      2.34110690	      0.98335281	      1.01234455	    -16.79538006	     -5.19891778	    -14.04369283	     17.23774749	      0.30085545	     -4.56521208	      2.78802761	      0.00000000	     31.18515803	     -0.83352737	    -10.58996533	     66.38465349	      1.15863078	      3.17107273	    -11.65833371	      0.00000000
     15.05333333	     -2.77183445	      5.29105504	      1.89527753	      2.34302688	      0.98652824	      1.01165899	    -17.27327678	     -5.53318556	    -14.88817045	     16.65175741	      0.29062799	     -7.24773371	      3.05019268	      0.00000000	     31.90261841	     -0.15024181	    -11.20902022	     62.33079008	      1.08787751	      3.50853620	    -10.60816315	      0.00000000
     15.06000000	     -3.48402374	      5.57609245	      2.48402300	      2.34482435	      0.98962649	      1.01082897	    -17.84133022	     -5.73551150	    -15.66050491	     16.36076948	      0.28554930	     -9.51281575	      3.21356786	      0.00000000	     32.24070160	      0.53772249	    -11.74319623	     58.13412451	      1.01463188	      3.84686953	     -9.21620665	      0.00000000
     15.06666667	     -4.32716510	      5.74715863	      3.14322893	      2.34633388	      0.99211347	      1.00976833	    -17.99827697	     -5.87442460	    -16.36598619	     16.62973605	      0.29024365	    -11.34031703	      3.25816658	      0.00000000	     32.63392441	      1.24403137	    -12.14952482	     53.86274403	      0.94008223	      4.08244705	     -7.62117302	      0.00000000
     15.07333333	     -4.77159894	      5.94958106	      3.78328072	      2.34765215	      0.99456024	      1.00868181	    -18.36243062	     -6.07671173	    -17.05625815	     17.38549843	      0.30343419	    -12.47711819	      3.49902761	      0.00000000	     32.46210146	      1.97520761	    -12.67001990	     49.51597272	      0.86421676	      4.47698995	     -5.38370789	      0.00000000
     15.08000000	     -5.35087315	      6.09564687	      4.49514546	      2.34869042	      0.99632760	      1.00733877	    -18.36054198	     -6.22787192	    -17.44804797	     18.61683383	      0.32492505	    -13.11853234	      3.36886261	      0.00000000	     32.36062572	      2.85263599	    -12.92043371	     45.12515626	      0.78758255	      4.77037757	     -3.40919020	      0.00000000
     15.08666667	     -5.71656174	      6.27763140	      5.16028530	      2.34955437	      0.99769567	      1.00596145	    -18.34339269	     -6.49616049	    -17.83078614	     20.41231799	      0.35626216	    -13.21240429	      3.51715640	      0.00000000	     31.93211071	      3.75684563	    -13.26085338	     40.75707633	      0.71134518	      5.09885470	     -1.13764862	      0.00000000
     15.09333333	     -6.02400613	      6.42202224	      5.80028615	      2.35013468	      0.99862546	      1.00452027	    -18.19845824	     -6.68235830	    -17.74571294	     22.53427182	      0.39329724	    -13.08820249	      3.15007933	      0.00000000	     31.37881221	      4.75613766	    -13.30278607	     36.42478962	      0.63573251	      5.37846055	      0.67543901	      0.00000000
     15.10000000	     -6.17673242	      6.52867101	      6.38264284	      2.35048492	      0.99911239	      1.00311187	    -17.99462610	     -6.86091784	    -17.52878618	     25.08101064	      0.43774622	    -12.68064812	      2.77850373	      0.00000000	     30.62651165	      5.73972126	    -13.18149055	     32.24307660	      0.56274785	      5.67811133	      2.31070719	      0.00000000
     15.10666667	     -6.17884445	      6.68923362	      6.87994276	      2.35056876	      0.99920934	      1.00183494	    -17.72272871	     -7.16760275	    -17.35633355	     28.07700503	      0.49003618	    -12.05291501	      2.72916935	      0.00000000	     29.65609544	      6.77987520	    -12.88315532	     28.18314098	      0.49188860	      5.88511464	      3.39870293	      0.00000000
     15.11333333	     -6.11513776	      6.71508696	      7.34621108	      2.35046000	      0.99884418	      1.00067000	    -17.34741030	     -7.22541912	    -16.75870516	     31.24007729	      0.54524221	    -11.55483026	      1.87896447	      0.00000000	     28.66742300	      7.62183284	    -12.49883166	     24.51563428	      0.42787854	      6.22945986	      4.49089455	      0.00000000
     15.12000000	     -5.89538974	      6.88025113	      7.69262901	      2.35019757	      0.99816782	      0.99971519	    -16.96439697	     -7.54767794	    -16.41248997	     34.75956378	      0.60666883	    -11.00404935	      1.48185554	      0.00000000	     27.40736468	      8.61833713	    -11.69135687	     20.91308286	      0.36500215	      6.16979248	      4.36010257	      0.00000000
     15.12666667	     -5.65056954	      6.83029063	      8.09761662	      2.34972816	      0.99702524	      0.99876243	    -16.45522469	     -7.50794092	    -15.80071404	     38.35773925	      0.66946884	    -10.60400915	      0.33561230	      0.00000000	     26.33422683	      9.21049833	    -11.25385709	     18.10525775	      0.31599636	      6.55215412	      5.18801124	      0.00000000
     15.13333333	     -5.30858325	      7.00455208	      8.29655579	      2.34908272	      0.99549066	      0.99806424	    -15.87481878	     -7.82928158	    -15.28079727	     42.26722753	      0.73770229	    -10.31384083	     -0.88768823	      0.00000000	     25.14344101	      9.89414765	    -10.97010333	     15.59133307	      0.27212010	      6.43941659	      5.38466201	      0.00000000
     15.14000000	     -4.89778061	      7.12498616	      8.57002115	      2.34830758	      0.99364147	      0.99733580	    -15.28116872	     -8.06809929	    -14.91548913	     46.22479606	      0.80677489	    -10.15785392	     -2.24215963	      0.00000000	     23.97364970	     10.49033343	    -10.52160398	     13.60869624	      0.23751656	      6.25528472	      5.38624751	      0.00000000
     15.14666667	     -4.47073585	      7.29194735	      8.90361453	      2.34736706	      0.99137969	      0.99651492	    -14.62538719	     -8.33965028	    -14.64436157	     50.26465255	      0.87728368	    -10.05913103	     -3.91219566	      0.00000000	     22.92152040	     11.06949862	    -10.13924515	     12.27590171	      0.21425490	      6.07444980	      5.60369281	      0.00000000
     15.15333333	     -4.04010419	      7.52339977	      9.21086003	      2.34627464	      0.98875129	      0.99571768	    -13.88389151	     -8.72664171	    -14.45767361	     54.36328431	      0.94881830	    -10.11873632	     -5.79166935	      0.00000000	     21.97568591	     11.62896435	     -9.87950417	     11.50668868	      0.20082960	      5.71039073	      5.78107805	      0.00000000
     15.16000000	     -3.61661022	      7.77181277	      9.56535644	      2.34503483	      0.98578071	      0.99487225	    -13.07131329	     -9.16320696	    -14.40045733	     58.45978631	      1.02031575	    -10.16834795	     -7.86131721	      0.00000000	     21.16462159	     12.15004846	     -9.66419604	     11.34325012	      0.19797706	      5.28660431	      5.92966176	      0.00000000
     15.16666667	     -3.27709233	      8.09011135	      9.91743404	      2.34359513	      0.98234417	      0.99405176	    -12.09005399	     -9.73481119	    -14.37441915	     62.58247479	      1.09227024	    -10.30124653	    -10.02517955	      0.00000000	     20.58558682	     12.68154149	     -9.51052979	     11.79785285	      0.20591138	      4.74159802	      5.99587023	      0.00000000
     15.17333333	     -3.10370912	      8.42172050	     10.26878461	      2.34193860	      0.97837795	      0.99328720	    -10.82972404	    -10.39666836	    -14.33321094	     66.72126805	      1.16450581	    -10.42606242	    -12.19598807	      0.00000000	     20.34872806	     13.17757964	     -9.39837235	     12.88468740	      0.22488022	      4.17897166	      5.89213916	      0.00000000
     15.18000000	     -2.73893006	      8.82504279	     10.65940347	      2.34019288	      0.97436143	      0.99254807	     -9.77543291	    -11.16279963	    -14.43919216	     70.73382218	      1.23453809	    -10.43579091	    -14.14094322	      0.00000000	     19.98748658	     13.69153848	     -9.11257579	     14.48493929	      0.25280988	      3.70891443	      5.44192892	      0.00000000
     15.18666667	     -2.90972314	      9.07681712	     11.01624370	      2.33803020	      0.96943604	      0.99193070	     -7.90983225	    -11.90257324	    -14.27295422	     74.83951667	      1.30619598	    -10.32912126	    -15.92541340	      0.00000000	     20.42163234	     14.06126657	     -8.88152721	     16.70095254	      0.29148661	      3.33568554	      4.56906120	      0.00000000
     15.19333333	     -2.91313396	      9.36841411	     11.34339187	      2.33575869	      0.96455200	      0.99146669	     -6.17231659	    -12.69425634	    -14.08020997	     78.78370971	      1.37503513	    -10.12565113	    -17.33535162	      0.00000000	     20.71478147	     14.43498612	     -8.44480516	     19.26772150	      0.33628518	      3.31065390	      3.29582462	      0.00000000
